<svg xmlns="http://www.w3.org/2000/svg" width="23" height="16" viewBox="0 0 23 16">
    <g fill-rule="nonzero">
        <path d="M7.417 1.28l.283-.213h13.6l.283.213v10.773l-.283.214h-2.55v2.186l-3.33-2.186h-.92v1.066h.425L18.962 16h1.205v-2.667h1.7L23 12.48V.853L21.867 0H7.133L6 .853v1.28h1.417z"/>
        <path d="M2.873 13.292V16h1.22l4.167-2.708h3.59l1.15-.867V3.867L11.779 3H1.149L0 3.867v8.558l1.15.867h1.723zM1.436 4.3l.288-.217h9.48l.288.217v7.692l-.288.216H7.685L4.31 14.43v-2.22H1.724l-.288-.217V4.3z"/>
    </g>
</svg>
