<svg xmlns="http://www.w3.org/2000/svg" width="15" height="17" viewBox="0 0 15 17">
    <g fill-rule="nonzero">
        <path d="M13.894 7.421v-1.07C13.894 3.408 11.443 1 8.447 1v1.07c2.397 0 4.357 1.927 4.357 4.281v2.14h.545l.49-.053-.38 1.659h-.655l-.108.696c-.164 1.177-.654 2.3-1.362 3.264a5.387 5.387 0 0 1-2.397 1.82 1.537 1.537 0 0 1-.98 0c-.98-.375-1.798-1.017-2.451-1.874-.708-.963-1.199-2.087-1.362-3.264l-.109-.696h-.436l-.218-.053-.38-1.552h.49v-1.07h-.436c-.327 0-.6.16-.817.374-.218.268-.273.59-.218.91l.38 1.552c0 .482.328.803.763.91.218 1.284.709 2.515 1.526 3.531.762 1.017 1.797 1.766 2.94 2.248.273.107.546.107.818.107.272 0 .6-.054.871-.107 1.199-.428 2.18-1.23 2.942-2.194.762-1.07 1.307-2.247 1.525-3.532.436-.107.708-.428.817-.856l.381-1.659c.11-.588-.327-1.124-.871-1.23h-.218z"/>
        <path d="M4.676 6.192L7.284 9 8 8.23 5.392 5.42c1.074-1.431.87-3.524-.46-4.68-1.33-1.156-3.17-.936-4.244.496-1.073 1.431-.869 3.523.46 4.68.972.936 2.404 1.046 3.528.275zm-3.63-2.808c0-1.211.92-2.202 2.045-2.202s2.046.99 2.046 2.202c0 1.211-.92 2.202-2.046 2.202-1.124 0-2.045-.99-2.045-2.202z"/>
    </g>
</svg>
