<svg xmlns="http://www.w3.org/2000/svg" width="171" height="46" viewBox="0 0 171 46">
    <g fill="#0085CF" fill-rule="nonzero">
        <path d="M163.65 23.43v2.27H168V28a5.38 5.38 0 0 1-3.48 1.32 5 5 0 0 1-5.03-5.32 5 5 0 0 1 5.06-5.31 4.68 4.68 0 0 1 3.81 2l2.11-1.19a6.9 6.9 0 0 0-5.92-3.06 7.41 7.41 0 0 0-7.71 7.6 7.42 7.42 0 0 0 7.71 7.62A8 8 0 0 0 170.6 29v-5.5l-6.95-.07zM73.33 16.39A7.29 7.29 0 0 0 65.82 24a7.51 7.51 0 1 0 15 0 7.29 7.29 0 0 0-7.49-7.61zm0 12.9c-3 0-4.87-2.29-4.87-5.31 0-3.02 1.89-5.31 4.87-5.31 2.98 0 4.87 2.27 4.87 5.31 0 3.04-1.92 5.31-4.87 5.31zM58.53 18.68a4.36 4.36 0 0 1 3.7 2.14l2.2-1.12a6.64 6.64 0 0 0-5.9-3.3 7.41 7.41 0 0 0-7.71 7.6 7.41 7.41 0 0 0 7.71 7.6 6.67 6.67 0 0 0 5.9-3.3l-2.2-1.12a4.31 4.31 0 0 1-3.7 2.14A5 5 0 0 1 53.46 24a5 5 0 0 1 5.07-5.32zM138.55 16.63H136v14.68h2.58zM97.7 31.31h10.06V29h-7.49v-4h7.33v-2.29h-7.33V18.9h7.49v-2.27H97.7zM88.73 28.52l-4.45-11.89h-2.93l5.77 14.68h3.21l5.77-14.68h-2.93zM112.56 20.53c0-1.1 1-1.83 2.49-1.83a6 6 0 0 1 4.25 1.67l1.48-1.92a7.64 7.64 0 0 0-5.5-2c-3.21 0-5.35 1.87-5.35 4.29 0 5.42 8.56 3.5 8.56 6.58 0 1-.84 2-3 2a6.33 6.33 0 0 1-4.65-2l-1.43 2a7.86 7.86 0 0 0 6 2.33c4 0 5.68-2.09 5.68-4.54.02-5.55-8.53-3.85-8.53-6.58zM122.32 18.9h4.45v12.41h2.58V18.9h4.45v-2.27h-11.48zM151.82 26.82l-7.51-10.19h-2.64v14.68h2.58V20.83l7.66 10.48h2.49V16.63h-2.58zM37.76 20.59a15.1 15.1 0 0 0-2.56-6.44c-.27-.39-.57-.77-.89-1.13a15.47 15.47 0 0 0-2.82-2.57 15.1 15.1 0 0 0-7.87-2.7h-.8a14.37 14.37 0 0 0-1.59.08c-.47 0-1 .12-1.42.22a15.22 15.22 0 0 0-6.11 2.76c-.38.29-.74.6-1.1.92a16.1 16.1 0 0 0-1.6 1.72 14.92 14.92 0 0 0-3.09 7.17c-.07.46-.12.94-.14 1.43v.79a14.37 14.37 0 0 0 .08 1.59c0 .47.12 1 .22 1.42a14.92 14.92 0 0 0 2.43 5.64c.28.4.57.78.89 1.14A15.48 15.48 0 0 0 13 34.29a14.92 14.92 0 0 0 6.77 3.31c.473.098.95.172 1.43.22a14.28 14.28 0 0 0 1.59.08h.79c.48 0 1-.07 1.43-.14a15 15 0 0 0 7.17-3.09A15.34 15.34 0 0 0 33.94 33c.32-.36.64-.72.92-1.1a15.23 15.23 0 0 0 2.76-6.1c.098-.473.172-.95.22-1.43a14.38 14.38 0 0 0 .08-1.59v-.79c-.04-.45-.09-.93-.16-1.4zm-2.13 3.58c0 .41-.11.82-.19 1.22a12.93 12.93 0 0 1-2.36 5.2 13 13 0 0 1-2.28 2.32 12.77 12.77 0 0 1-7.31 2.76h-.67a12.32 12.32 0 0 1-1.36-.07c-.41 0-.82-.11-1.22-.19a12.87 12.87 0 0 1-4.82-2.07c-.34-.24-.66-.49-1-.75A13.14 13.14 0 0 1 13 31.17c-.26-.31-.51-.64-.75-1a12.73 12.73 0 0 1-2.32-7.36v-.68c0-.413.04-.82.12-1.22A12.82 12.82 0 0 1 12 15.83c.22-.35.47-.69.72-1a13.2 13.2 0 0 1 1.39-1.5c.3-.27.61-.54.93-.79a12.82 12.82 0 0 1 5.2-2.36c.41-.08.81-.14 1.22-.18a12.32 12.32 0 0 1 1.36-.07h.68c.413 0 .82.04 1.22.12a12.89 12.89 0 0 1 5.49 2.19c.346.233.68.483 1 .75.517.442.998.923 1.44 1.44.26.31.52.64.75 1a12.89 12.89 0 0 1 2.19 5.49c.06.4.1.81.12 1.22v.68a12.32 12.32 0 0 1-.08 1.35z"/>
        <path d="M5.14 21.85a1.11 1.11 0 0 0 1.22-1 16.59 16.59 0 0 1 2.95-7.66c.24-.34.5-.68.76-1a15.31 15.31 0 0 1 1.42-1.51c.31-.28.62-.56.94-.82a16.5 16.5 0 0 1 7.77-3.41 1.11 1.11 0 0 0-.2-2.2h-.17a18.72 18.72 0 0 0-9.86 4.84 18.61 18.61 0 0 0-2.47 2.83 18.74 18.74 0 0 0-3.34 8.69 1.11 1.11 0 0 0 .98 1.24zM35.24 8.73c-.35-.31-.71-.61-1.09-.89A18.76 18.76 0 0 0 25 4.16h-.12a1.09 1.09 0 0 0-1.09 1 1.11 1.11 0 0 0 1 1.22 16.45 16.45 0 0 1 8.03 3.22c.34.26.66.52 1 .79a16.31 16.31 0 0 1 1.46 1.46 1.102 1.102 0 1 0 1.65-1.46 18.54 18.54 0 0 0-1.69-1.66zM10.4 36.88a18.74 18.74 0 0 0 9.45 4.46 1.11 1.11 0 1 0 .35-2.18A16.6 16.6 0 0 1 12.82 36c-.33-.25-.66-.51-1-.79a16.3 16.3 0 0 1-1.46-1.46c-.27-.31-.54-.63-.79-1a16.51 16.51 0 0 1-3.14-7.37 1.11 1.11 0 0 0-1.09-.93h-.17a1.11 1.11 0 0 0-.92 1.27 18.74 18.74 0 0 0 3.57 8.36c.28.38.59.74.89 1.09a19.5 19.5 0 0 0 1.69 1.71zM35.73 33.78c-.307 0-.6.127-.81.35a17.5 17.5 0 0 1-1.51 1.42 16.59 16.59 0 0 1-8.65 3.72 1.102 1.102 0 0 0 .24 2.19 18.74 18.74 0 0 0 9.82-4.21 17.45 17.45 0 0 0 1.7-1.61 1.11 1.11 0 0 0 0-1.56 1.15 1.15 0 0 0-.79-.3z"/>
        <path d="M35 39a20.16 20.16 0 0 1-10.25 4c-.42 0-.84.07-1.26.08H21.4c-.42 0-.84-.07-1.26-.12a20.19 20.19 0 0 1-9.94-4.22 1 1 0 0 0-.68-.25 1.1 1.1 0 0 0-.69 2 22.28 22.28 0 0 0 12.39 4.82c.74 0 1.54.07 2.32 0 .46 0 .93 0 1.39-.09a22.43 22.43 0 0 0 11.38-4.43A1.11 1.11 0 0 0 35 39zM2.75 25.44c-.06-.41-.1-.84-.12-1.26-.02-.42 0-.93 0-1.4v-.7c0-.41 0-.84.08-1.26a20.16 20.16 0 0 1 4-10.25A1.11 1.11 0 0 0 6.45 9a1.26 1.26 0 0 0-.66-.2 1.12 1.12 0 0 0-.89.44 22.34 22.34 0 0 0-4.42 11.4c0 .46-.07.93-.09 1.39V24.35c0 .55.07.93.14 1.39a22.43 22.43 0 0 0 4.68 11A1.121 1.121 0 0 0 7 35.39a20.16 20.16 0 0 1-4.25-9.95zM9.84 7.27a20.16 20.16 0 0 1 10.33-4.53c.41-.06.84-.1 1.26-.12.7-.037 1.4-.037 2.1 0 .41 0 .84 0 1.26.08A20.13 20.13 0 0 1 35.42 7a1.11 1.11 0 0 0 1.38-1.73A22.36 22.36 0 0 0 25 .46c-.46 0-.93-.07-1.39-.09h-2.34c-.55 0-.93.07-1.39.14a22.39 22.39 0 0 0-11.46 5 1.104 1.104 0 0 0 1.41 1.7l.01.06zM17.87 22.78c-.59 0-1.07.48-1.07 1.07v2.65a1.07 1.07 0 0 0 2.14 0v-2.65c0-.59-.48-1.07-1.07-1.07zM22 19.47c-.59 0-1.07.48-1.07 1.07v6a1.07 1.07 0 0 0 2.14 0v-6A1.07 1.07 0 0 0 22 19.47zM26.09 15.4A1.07 1.07 0 0 0 25 16.46v10a1.07 1.07 0 1 0 2.14 0v-10a1.07 1.07 0 0 0-1.05-1.06z"/>
    </g>
</svg>
