<svg xmlns="http://www.w3.org/2000/svg" width="166" height="41" viewBox="0 0 166 41">
    <g fill="#FFF" fill-rule="nonzero">
        <path d="M158.868 20.885v2.021h4.253v2.041c-.641.55-1.924 1.177-3.377 1.177-2.821 0-4.916-2.001-4.916-4.748 0-2.748 2.095-4.73 4.916-4.73 1.603 0 2.95.766 3.697 1.747l2.052-1.06c-1.154-1.51-2.97-2.727-5.749-2.727-4.125 0-7.48 2.669-7.48 6.77 0 4.1 3.355 6.79 7.48 6.79 2.48 0 4.467-.943 5.877-2.375v-4.906h-6.753zM71.183 14.606c-4.274 0-7.288 2.865-7.288 6.77 0 3.905 3.014 6.77 7.288 6.77 4.275 0 7.288-2.865 7.288-6.77 0-3.905-3.013-6.77-7.288-6.77zm0 11.499c-2.885 0-4.723-2.04-4.723-4.73 0-2.707 1.838-4.728 4.723-4.728 2.864 0 4.724 2.02 4.724 4.729 0 2.688-1.86 4.729-4.724 4.729zM56.814 16.647c1.54 0 2.907.824 3.59 1.903l2.138-1c-1.069-1.57-2.842-2.944-5.728-2.944-4.21 0-7.48 2.747-7.48 6.77 0 4.022 3.27 6.77 7.48 6.77 2.886 0 4.638-1.374 5.728-2.944l-2.137-1c-.684 1.098-2.052 1.903-3.59 1.903-2.822 0-4.916-1.982-4.916-4.73 0-2.747 2.094-4.728 4.915-4.728zM134.495 14.822h-2.5V27.91h2.5zM94.843 27.91h9.767v-2.021h-7.266v-3.63h7.117v-2.022h-7.117v-3.394h7.266v-2.021h-9.767zM86.131 25.418l-4.317-10.596H78.97l5.6 13.088h3.12l5.6-13.088h-2.843zM109.273 18.295c0-.981.94-1.629 2.415-1.629 1.496 0 3.013.471 4.125 1.492l1.432-1.708c-1.325-1.177-3.12-1.825-5.343-1.825-3.12 0-5.194 1.668-5.194 3.827 0 4.827 8.314 3.12 8.314 5.867 0 .864-.812 1.786-2.864 1.786-1.987 0-3.526-.844-4.51-1.805l-1.389 1.766c1.261 1.236 3.163 2.08 5.792 2.08 3.847 0 5.514-1.865 5.514-4.043 0-4.886-8.292-3.375-8.292-5.808zM118.743 16.843h4.318V27.91h2.5V16.843h4.317v-2.021h-11.135zM147.38 23.907l-7.288-9.085h-2.564V27.91h2.5v-9.34l7.438 9.34h2.415V14.822h-2.5zM36.658 18.348a12.856 12.856 0 0 0-2.49-5.737 14.473 14.473 0 0 0-3.598-3.296 15.432 15.432 0 0 0-7.638-2.412 15.178 15.178 0 0 0-2.321.052c-.457.044-.923.11-1.381.191a15.426 15.426 0 0 0-5.927 2.463c-.37.258-.723.531-1.068.819-.57.487-1.1 1.01-1.575 1.556-.28.332-.562.678-.819 1.047-1.14 1.622-1.88 3.407-2.184 5.317-.065.413-.113.84-.137 1.275-.016.236-.016.48-.016.708 0 .48.024.952.08 1.416.048.42.12.848.21 1.268a12.762 12.762 0 0 0 2.36 5.03c.273.354.555.693.86 1.017a14.482 14.482 0 0 0 2.738 2.286 15.174 15.174 0 0 0 5.478 2.168c.458.089.924.148 1.39.192.497.051 1.02.074 1.541.074.25 0 .515-.008.771-.015a17.36 17.36 0 0 0 1.39-.125 15.337 15.337 0 0 0 5.79-2.006 14.69 14.69 0 0 0 2.836-2.198c.313-.317.618-.641.891-.98 1.317-1.6 2.249-3.481 2.683-5.435.096-.42.16-.848.209-1.276.056-.464.08-.936.08-1.416 0-.228-.008-.464-.016-.708a13.476 13.476 0 0 0-.137-1.275zm-2.072 3.193c-.04.361-.104.73-.184 1.091-.37 1.674-1.165 3.274-2.29 4.638-.24.288-.497.568-.763.84a12.254 12.254 0 0 1-2.425 1.874 13.093 13.093 0 0 1-4.94 1.71c-.385.052-.787.09-1.18.111-.209 0-.434.008-.65.008-.442 0-.884-.022-1.318-.067a13.19 13.19 0 0 1-1.188-.17 13.09 13.09 0 0 1-4.675-1.843 12.286 12.286 0 0 1-2.337-1.954 13.053 13.053 0 0 1-.73-.863c-.989-1.298-1.671-2.743-2.009-4.291a9.863 9.863 0 0 1-.176-1.084 10.094 10.094 0 0 1-.073-1.21c0-.199.008-.398.016-.604.025-.37.065-.73.12-1.084.266-1.63.892-3.15 1.864-4.535.217-.31.458-.613.699-.893a12.224 12.224 0 0 1 2.257-2.035 12.997 12.997 0 0 1 6.232-2.264c.434-.044.876-.066 1.317-.066.217 0 .434.007.659.014.401.023.795.06 1.18.111 1.912.258 3.751.937 5.334 1.954a12.294 12.294 0 0 1 3.068 2.817c1.108 1.453 1.847 3.142 2.128 4.897.056.354.096.722.12 1.084.008.206.016.405.016.604 0 .406-.024.811-.072 1.21z"/>
        <path d="M4.994 19.476c.587.06 1.117-.324 1.189-.862.313-2.456 1.301-4.816 2.86-6.829.232-.302.49-.604.738-.885.426-.472.892-.929 1.381-1.342.298-.25.603-.501.916-.73a16.742 16.742 0 0 1 7.534-3.075c.586-.088.98-.59.891-1.128-.088-.487-.538-.833-1.06-.833-.056 0-.113.007-.169.014-3.116.458-6.072 1.66-8.537 3.488a17.7 17.7 0 0 0-2.602 2.353c-.29.317-.57.656-.836.995-1.775 2.286-2.891 4.963-3.244 7.743-.065.538.353 1.025.94 1.091zM34.208 7.78a15.84 15.84 0 0 0-1.06-.796c-2.586-1.8-5.654-2.928-8.866-3.274-.04 0-.08-.008-.121-.008-.538 0-1.004.37-1.06.87-.064.539.353 1.026.94 1.092 2.835.302 5.541 1.298 7.822 2.89.33.23.643.465.932.701.506.406.98.848 1.421 1.305.394.406 1.069.45 1.51.089.442-.361.49-.98.097-1.386a17.342 17.342 0 0 0-1.615-1.483zM10.093 32.875c.337.273.699.546 1.06.797 2.37 1.651 5.18 2.75 8.112 3.178.586.08 1.132-.28 1.229-.819.096-.538-.306-1.04-.892-1.128a16.887 16.887 0 0 1-7.156-2.802 12.23 12.23 0 0 1-.932-.7c-.506-.406-.98-.849-1.421-1.306a11.77 11.77 0 0 1-.763-.863c-1.59-1.924-2.643-4.196-3.052-6.57-.088-.48-.538-.826-1.06-.826-.057 0-.113.007-.169.015-.586.088-.98.59-.891 1.128.465 2.692 1.662 5.273 3.461 7.448.273.34.57.664.868.973a18.239 18.239 0 0 0 1.606 1.475zM34.684 30.11c-.29 0-.57.102-.787.309-.458.45-.948.87-1.462 1.268a17.96 17.96 0 0 1-.964.686c-2.192 1.43-4.762 2.338-7.429 2.625-.586.06-1.012.553-.94 1.092.073.538.603.929 1.189.862 3.028-.324 5.943-1.35 8.433-2.979.378-.25.747-.509 1.092-.774.587-.443 1.14-.93 1.655-1.438a.933.933 0 0 0-.048-1.394 1.177 1.177 0 0 0-.74-.258z"/>
        <path d="M34.006 34.733c-2.899 2.013-6.336 3.245-9.95 3.562-.41.037-.82.059-1.221.074-.691.022-1.374.007-2.032-.03-.41-.022-.82-.059-1.221-.11-3.526-.42-6.859-1.726-9.654-3.761a1.038 1.038 0 0 0-.659-.221c-.313 0-.626.125-.843.368-.37.428-.289 1.047.169 1.387 3.092 2.263 6.794 3.709 10.706 4.173.45.052.9.096 1.349.126.723.044 1.494.059 2.249.037.45-.015.9-.045 1.35-.082 4.023-.353 7.838-1.725 11.05-3.952a.933.933 0 0 0 .21-1.379c-.354-.435-1.029-.516-1.503-.192zM2.672 22.676a12.948 12.948 0 0 1-.12-1.12 15.888 15.888 0 0 1-.048-1.247c0-.206 0-.42.008-.62.016-.368.04-.744.08-1.12.345-3.318 1.687-6.475 3.88-9.137.353-.435.264-1.047-.21-1.379a1.307 1.307 0 0 0-.642-.177 1.12 1.12 0 0 0-.86.391C2.335 11.217.841 14.72.464 18.4c-.04.413-.073.826-.089 1.24-.008.228-.016.456-.016.685 0 .465.016.93.048 1.379.032.413.073.826.137 1.239.514 3.591 2.088 6.99 4.546 9.83.37.427 1.044.494 1.51.154a.932.932 0 0 0 .168-1.386c-2.216-2.559-3.638-5.626-4.096-8.864zM9.554 6.483c2.867-2.198 6.329-3.599 10.024-4.041.401-.052.81-.089 1.22-.11a20.85 20.85 0 0 1 2.04-.03c.402.015.812.037 1.221.074 3.783.331 7.349 1.659 10.329 3.834.465.34 1.14.266 1.51-.155.369-.427.289-1.047-.17-1.386-3.3-2.411-7.268-3.886-11.46-4.255-.45-.037-.9-.066-1.35-.081-.256-.015-.513-.015-.762-.015-.506 0-1.012.015-1.502.044-.45.03-.9.067-1.35.126C15.208.982 11.361 2.53 8.181 4.97a.929.929 0 0 0-.137 1.387c.378.42 1.052.472 1.51.125zM17.347 20.307c-.573 0-1.038.427-1.038.954v2.354c0 .527.465.954 1.038.954.574 0 1.039-.427 1.039-.954v-2.354c0-.527-.465-.954-1.039-.954zM21.337 17.357c-.573 0-1.038.427-1.038.954v5.304c0 .527.465.954 1.038.954.574 0 1.039-.427 1.039-.954v-5.304c0-.527-.465-.954-1.039-.954zM25.327 13.722c-.574 0-1.039.427-1.039.953v8.94c0 .527.465.954 1.039.954.574 0 1.039-.427 1.039-.954v-8.94c0-.526-.465-.953-1.039-.953z"/>
    </g>
</svg>
