<svg xmlns="http://www.w3.org/2000/svg" width="18" height="18" viewBox="0 0 18 18">
    <g fill-rule="evenodd">
        <path stroke="transparent" fill-rule="nonzero" d="M9.809 18H8.192a.915.915 0 0 1-.915-.914v-1.211a7.006 7.006 0 0 1-1.918-.797l-.859.858a.937.937 0 0 1-1.293 0l-1.143-1.144a.911.911 0 0 1 0-1.293l.858-.857a7.017 7.017 0 0 1-.796-1.919H.914A.915.915 0 0 1 0 9.81V8.19c0-.503.41-.913.913-.913h1.213c.169-.677.436-1.32.797-1.92l-.858-.857a.908.908 0 0 1-.268-.648c0-.244.096-.473.268-.645l1.142-1.143a.905.905 0 0 1 .646-.267c.245 0 .474.095.647.267l.858.858c.6-.36 1.243-.628 1.918-.797V.914c0-.504.41-.914.915-.914h1.617c.504 0 .914.41.914.914v1.212c.676.168 1.32.435 1.919.797l.858-.858a.937.937 0 0 1 1.293 0l1.143 1.143c.172.171.268.4.268.645a.907.907 0 0 1-.268.647l-.857.858a7 7 0 0 1 .796 1.92h1.211c.503 0 .913.409.915.912v1.619c0 .504-.41.914-.914.914h-1.211a6.993 6.993 0 0 1-.797 1.918l.858.859a.905.905 0 0 1 .268.646.906.906 0 0 1-.268.647l-1.143 1.144a.936.936 0 0 1-1.293 0l-.858-.859c-.6.362-1.244.629-1.919.797v1.211c0 .504-.41.914-.914.914zm-4.552-3.88l.255.168c.68.45 1.426.759 2.215.92l.3.061v1.817c0 .089.076.164.165.164h1.617a.166.166 0 0 0 .164-.164v-1.817l.3-.06a6.284 6.284 0 0 0 2.216-.92l.255-.17 1.287 1.287a.164.164 0 0 0 .231.001l1.145-1.145a.162.162 0 0 0 .048-.116.162.162 0 0 0-.048-.116l-1.286-1.287.169-.256a6.27 6.27 0 0 0 .919-2.214l.061-.3h1.817a.167.167 0 0 0 .164-.164V8.19a.168.168 0 0 0-.165-.164H15.27l-.06-.3a6.287 6.287 0 0 0-.92-2.215l-.169-.256 1.286-1.286a.162.162 0 0 0 .048-.117.161.161 0 0 0-.047-.115l-1.145-1.144a.164.164 0 0 0-.232 0l-1.286 1.287-.256-.17a6.272 6.272 0 0 0-2.215-.919l-.3-.061V.914A.166.166 0 0 0 9.808.75H8.191a.167.167 0 0 0-.164.164v1.817l-.3.062a6.283 6.283 0 0 0-2.216.92l-.255.168L3.97 2.595a.165.165 0 0 0-.232 0L2.595 3.738a.163.163 0 0 0-.048.115c0 .026.006.075.048.117l1.287 1.286-.17.256a6.274 6.274 0 0 0-.92 2.215l-.06.3H.913a.164.164 0 0 0-.164.163V9.81c0 .089.075.164.164.164h1.817l.062.3a6.26 6.26 0 0 0 .92 2.214l.169.256-1.287 1.287a.164.164 0 0 0 0 .231l1.144 1.145a.164.164 0 0 0 .232 0l1.286-1.287z"/>
        <circle fill="none" cx="9" cy="9" r="4" />
    </g>
</svg>
