<svg xmlns="http://www.w3.org/2000/svg" width="19" height="17" viewBox="0 0 19 17">
    <g fill-rule="nonzero">
        <path d="M16.188 17H2.813l-.001-.396.001-.396H16.19c1.113 0 2.02-.906 2.02-2.02V6.812c0-1.114-.906-2.02-2.02-2.02H2.813a2.023 2.023 0 0 0-2.021 2.02v7.376c0 .537.21 1.043.593 1.426.383.384.89.594 1.427.594V17a2.79 2.79 0 0 1-1.986-.826A2.793 2.793 0 0 1 0 14.188V6.812A2.816 2.816 0 0 1 2.813 4H16.19A2.815 2.815 0 0 1 19 6.812v7.376A2.816 2.816 0 0 1 16.188 17z"/>
        <path d="M2.403 5a.404.404 0 0 1-.372-.232c-.085-.192.012-.412.218-.491L12.829.182c.057-.02 1.175-.41 2.11.016.496.225.841.624 1.027 1.185.596 1.804 1.008 2.941 1.013 2.952.071.197-.042.41-.253.477a.41.41 0 0 1-.511-.235c-.004-.011-.42-1.157-1.02-2.972-.118-.358-.316-.597-.605-.73-.62-.283-1.456.003-1.465.006L2.558 4.971A.427.427 0 0 1 2.403 5zM14.5 12c-.827 0-1.5-.673-1.5-1.5S13.673 9 14.5 9s1.5.673 1.5 1.5-.673 1.5-1.5 1.5zm0-2.381a.883.883 0 0 0 0 1.763.882.882 0 0 0 0-1.763z"/>
    </g>
</svg>
